<mxfile host="app.diagrams.net" modified="2023-08-28T09:34:13.629Z" agent="Mozilla/5.0 (Windows NT 10.0; Win64; x64) AppleWebKit/537.36 (KHTML, like Gecko) Chrome/114.0.0.0 Safari/537.36 OPR/100.0.0.0" version="21.6.9" etag="w00-BmnSlTBiPhjksZQK" type="github">
  <diagram name="Page-1" id="ix6RJ1fXO4-GrSuuVnxo">
    <mxGraphModel>
      <root>
        <mxCell id="0" />
        <mxCell id="1" parent="0" />
      </root>
    </mxGraphModel>
  </diagram>
</mxfile>
